<svg id="Layer_1" data-name="Layer 1" xmlns="http://www.w3.org/2000/svg" viewBox="0 0 123.28 123.75"><defs><style>.cls-1{fill:#000;}</style></defs><g><path class="cls-1" d="M31.85,69.41l5.37,0.66L34.5,74.75a34,34,0,0,0-3.65,9.11H96.72a34,34,0,0,0-3.65-9.11l-2.73-4.68,5.37-.66A33.88,33.88,0,1,0,66.43,13.09L63.78,16l-2.65-2.92A33.87,33.87,0,1,0,31.85,69.41ZM92,15.76A19.42,19.42,0,1,1,72.57,35.18,19.44,19.44,0,0,1,92,15.76ZM73.15,60.62a6,6,0,1,1-6,6A6,6,0,0,1,73.15,60.62Zm-12.72,6a6,6,0,1,1-6-6A6,6,0,0,1,60.43,66.63ZM35.57,16.68A19.42,19.42,0,1,1,16.15,36.11,19.44,19.44,0,0,1,35.57,16.68Z" transform="translate(-2.14 -1.91)"/><path class="cls-1" d="M35.57,44.43a8.32,8.32,0,1,0-8.32-8.32A8.33,8.33,0,0,0,35.57,44.43Z" transform="translate(-2.14 -1.91)"/><path class="cls-1" d="M29.91,91c0,0.25,0,.5,0,0.75a33.9,33.9,0,0,0,67.79,0c0-.25,0-0.5,0-0.75H29.91Z" transform="translate(-2.14 -1.91)"/><path class="cls-1" d="M92,43.51a8.32,8.32,0,1,0-8.32-8.32A8.33,8.33,0,0,0,92,43.51Z" transform="translate(-2.14 -1.91)"/></g></svg>